<svg xmlns="http://www.w3.org/2000/svg" viewBox="1391.42 177.417 44.159999999999854 44.166">
  <path d="M1430.87 191.694C1431.18 190.603 1431.24 189.457 1431.06 188.338C1430.88 187.219 1430.46 186.152 1429.82 185.215C1429.18 184.278 1428.35 183.492 1427.37 182.914C1426.39 182.336 1425.3 181.979 1424.18 181.869C1423.72 180.569 1422.88 179.443 1421.76 178.645C1420.63 177.848 1419.29 177.418 1417.92 177.417C1416.28 177.422 1414.71 178.036 1413.5 179.139C1412.29 178.036 1410.72 177.422 1409.08 177.417C1406.21 177.417 1403.76 179.252 1402.84 181.866C1401.71 181.974 1400.62 182.329 1399.64 182.906C1398.67 183.483 1397.83 184.269 1397.19 185.207C1396.55 186.145 1396.12 187.212 1395.94 188.333C1395.76 189.454 1395.82 190.601 1396.13 191.694C1394.72 192.448 1393.53 193.572 1392.7 194.946C1391.87 196.321 1391.43 197.894 1391.42 199.5C1391.42 201.874 1392.36 204.107 1394 205.754C1393.75 206.591 1393.63 207.46 1393.63 208.333C1393.63 212.655 1396.74 216.261 1400.93 217.021C1401.54 218.378 1402.53 219.53 1403.78 220.339C1405.03 221.148 1406.49 221.58 1407.98 221.583C1410.14 221.583 1412.1 220.685 1413.5 219.245C1414.22 219.984 1415.07 220.572 1416.02 220.974C1416.97 221.376 1417.99 221.583 1419.02 221.583C1420.51 221.581 1421.96 221.15 1423.21 220.344C1424.46 219.537 1425.45 218.388 1426.07 217.034C1427.3 216.817 1428.47 216.341 1429.5 215.637C1430.54 214.934 1431.41 214.019 1432.07 212.953C1432.72 211.887 1433.14 210.694 1433.3 209.453C1433.46 208.212 1433.36 206.951 1433 205.754C1433.82 204.933 1434.47 203.958 1434.91 202.885C1435.36 201.811 1435.58 200.661 1435.58 199.5C1435.57 197.894 1435.13 196.321 1434.3 194.946C1433.47 193.572 1432.28 192.448 1430.87 191.694ZM1407.98 217.167C1406.41 217.167 1405.04 216.054 1404.73 214.521L1404.26 212.75H1402.46C1400.02 212.75 1398.04 210.769 1398.04 208.333C1398.04 207.556 1398.23 206.827 1398.6 206.167L1399.61 204.365L1397.88 203.239C1397.25 202.835 1396.74 202.282 1396.38 201.629C1396.02 200.976 1395.83 200.244 1395.83 199.5C1395.83 197.342 1397.43 195.472 1399.55 195.145L1403.29 194.571L1400.95 191.599C1400.53 191.062 1400.29 190.41 1400.26 189.731C1400.22 189.052 1400.4 188.38 1400.76 187.804C1401.12 187.228 1401.65 186.777 1402.27 186.512C1402.9 186.247 1403.59 186.18 1404.26 186.321L1406.88 186.707V184.042C1406.88 183.456 1407.11 182.894 1407.52 182.48C1407.94 182.066 1408.5 181.833 1409.08 181.833C1409.67 181.833 1410.23 182.066 1410.64 182.48C1411.06 182.894 1411.29 183.456 1411.29 184.042V213.854C1411.29 215.68 1409.81 217.167 1407.98 217.167ZM1429.12 203.236L1427.39 204.363L1428.4 206.165C1428.77 206.827 1428.96 207.556 1428.96 208.333C1428.96 210.769 1426.98 212.75 1424.43 212.75H1422.62L1422.27 214.521C1422.11 215.268 1421.71 215.939 1421.11 216.421C1420.52 216.903 1419.78 217.166 1419.02 217.167C1417.19 217.167 1415.71 215.68 1415.71 213.854V184.042C1415.71 182.823 1416.7 181.833 1417.92 181.833C1419.14 181.833 1420.13 182.823 1420.13 184.152V186.818L1422.74 186.321C1423.41 186.18 1424.1 186.247 1424.73 186.512C1425.35 186.777 1425.88 187.228 1426.24 187.804C1426.6 188.38 1426.78 189.052 1426.74 189.731C1426.71 190.41 1426.47 191.062 1426.05 191.599L1423.71 194.573L1427.45 195.147C1428.49 195.315 1429.43 195.844 1430.11 196.642C1430.79 197.439 1431.16 198.452 1431.17 199.5C1431.17 201.008 1430.4 202.404 1429.12 203.236Z" fill="#000000"/>
</svg>