<svg xmlns="http://www.w3.org/2000/svg" viewBox="1393.36 121.476 39.25 39.167">
  <path d="M 1418.86 137.45 L 1425.96 144.541 C 1426.69 145.262 1427.68 145.664 1428.72 145.658 C 1429.75 145.652 1430.73 145.24 1431.46 144.511 C 1432.19 143.782 1432.61 142.795 1432.61 141.764 C 1432.62 140.732 1432.22 139.741 1431.49 139.003 L 1418.86 126.372 V 137.45 Z M 1407.18 144.402 L 1400.09 137.311 C 1399.73 136.937 1399.3 136.639 1398.82 136.434 C 1398.34 136.228 1397.83 136.12 1397.31 136.116 C 1396.79 136.111 1396.27 136.21 1395.79 136.407 C 1395.31 136.604 1394.87 136.895 1394.5 137.263 C 1394.14 137.63 1393.85 138.068 1393.65 138.549 C 1393.45 139.03 1393.35 139.546 1393.36 140.066 C 1393.36 140.586 1393.47 141.1 1393.68 141.578 C 1393.88 142.056 1394.18 142.488 1394.55 142.849 L 1407.18 155.481 V 144.402 H 1407.18 Z M 1418.86 127.351 C 1418.86 124.107 1416.23 121.476 1412.99 121.476 C 1409.74 121.476 1407.11 124.107 1407.11 127.351 V 154.768 C 1407.11 158.013 1409.74 160.643 1412.99 160.643 C 1416.23 160.643 1418.86 158.013 1418.86 154.768 V 127.351 Z M 1409 154 C 1410 152 1412 155 1409 155 M 1410 129 C 1409 125 1415 129 1410 129 V 128 Z" fill="#000000"/>
</svg>