<svg xmlns="http://www.w3.org/2000/svg" viewBox="1390 66 41 41.836">
  <path d="M1410.5 66C1399.17 66 1390 75.6069 1390 87.468C1390 96.9675 1395.87 104.991 1404.02 107.836C1405.04 108.024 1405.43 107.38 1405.43 106.816C1405.43 106.306 1405.4 104.616 1405.4 102.818C1400.25 103.81 1398.92 101.503 1398.51 100.295C1398.28 99.6779 1397.28 97.7726 1396.41 97.2627C1395.69 96.8602 1394.66 95.8673 1396.38 95.8405C1397.99 95.8136 1399.15 97.3969 1399.53 98.0409C1401.38 101.288 1404.32 100.376 1405.5 99.812C1405.68 98.4166 1406.22 97.4774 1406.81 96.9407C1402.25 96.404 1397.48 94.5524 1397.48 86.3409C1397.48 84.0063 1398.28 82.0741 1399.58 80.5714C1399.38 80.0347 1398.66 77.8342 1399.79 74.8824C1399.79 74.8824 1401.51 74.3188 1405.43 77.0828C1407.07 76.5998 1408.81 76.3583 1410.55 76.3583C1412.29 76.3583 1414.04 76.5998 1415.68 77.0828C1419.6 74.292 1421.31 74.8824 1421.31 74.8824C1422.44 77.8342 1421.72 80.0347 1421.52 80.5714C1422.83 82.0741 1423.62 83.9794 1423.62 86.3409C1423.62 94.5792 1418.83 96.404 1414.27 96.9407C1415.01 97.6116 1415.65 98.8997 1415.65 100.912C1415.65 103.784 1415.62 106.091 1415.62 106.816C1415.62 107.38 1416.01 108.05 1417.03 107.836C1421.1 106.397 1424.64 103.658 1427.15 100.004C1429.65 96.3504 1431 91.966 1431 87.468C1431 75.6069 1421.83 66 1410.5 66Z" fill="#000000"/>
</svg>