<svg xmlns="http://www.w3.org/2000/svg" viewBox="0 2.75 22 16.5">
  <path d="M9.625 19.25C9.625 19.25 8.25 19.25 8.25 17.875C8.25 16.5 9.625 12.375 15.125 12.375C20.625 12.375 22 16.5 22 17.875C22 19.25 20.625 19.25 20.625 19.25H9.625ZM15.125 11C16.219 11 17.2682 10.5654 18.0418 9.79182C18.8154 9.01823 19.25 7.96902 19.25 6.875C19.25 5.78098 18.8154 4.73177 18.0418 3.95818C17.2682 3.1846 16.219 2.75 15.125 2.75C14.031 2.75 12.9818 3.1846 12.2082 3.95818C11.4346 4.73177 11 5.78098 11 6.875C11 7.96902 11.4346 9.01823 12.2082 9.79182C12.9818 10.5654 14.031 11 15.125 11Z

M6.1875 11C7.09918 11 7.97352 10.6378 8.61818 9.99318C9.26284 9.34852 9.625 8.47418 9.625 7.5625C9.625 6.65082 9.26284 5.77648 8.61818 5.13182C7.97352 4.48716 7.09918 4.125 6.1875 4.125C5.27582 4.125 4.40148 4.48716 3.75682 5.13182C3.11216 5.77648 2.75 6.65082 2.75 7.5625C2.75 8.47418 3.11216 9.34852 3.75682 9.99318C4.40148 10.6378 5.27582 11 6.1875 11Z M7.172 19.25C6.96816 18.8208 6.86651 18.3501 6.875 17.875C6.875 16.0119 7.81 14.0938 9.537 12.76C8.675 12.4944 7.77693 12.3645 6.875 12.375C1.375 12.375 0 16.5 0 17.875C0 19.25 1.375 19.25 1.375 19.25H7.172Z" fill="#FAFBFC"/>
</svg>